# xmcd
#
# Track frame offsets: 
#        182
#        19470
#        47172
#        68682
#        97685
#        120462
#        141670
#        161677
#        184262
#        208507
#        232205
#
# Disc length: 3432 seconds
#
# Revision: 4
# Processed by: cddbd v1.5.2PL0 Copyright (c) Steve Scherf et al.
# Submitted via: ExactAudioCopy v0.99pb5
#
DISCID=9e0d660b
DTITLE=Will Downing - Love's The Place To Be
DYEAR=1993
DGENRE=R&B
TTITLE0=There's No Living Without You
TTITLE1=Sailing On A Dream
TTITLE2=One Moment
TTITLE3=Nothing Has Ever Felt Like This
TTITLE4=Love's The Place To Be
TTITLE5=Lover's Paradise
TTITLE6=Everything To Me
TTITLE7=Do You Still Love Me
TTITLE8=Hey Girl
TTITLE9=Break Up To Make Up
TTITLE10=That's All
EXTD=YEAR: 1993 ID3G: 14
EXTT0=
EXTT1=
EXTT2=
EXTT3=
EXTT4=
EXTT5=
EXTT6=
EXTT7=
EXTT8=
EXTT9=
EXTT10=
PLAYORDER=
